<?xml version="1.0" standalone="no"?>
<!DOCTYPE svg PUBLIC "-//W3C//DTD SVG 20010904//EN"
 "http://www.w3.org/TR/2001/REC-SVG-20010904/DTD/svg10.dtd">
<svg version="1.0" xmlns="http://www.w3.org/2000/svg"
 width="512.000000pt" height="512.000000pt" viewBox="0 0 512.000000 512.000000"
 preserveAspectRatio="xMidYMid meet">
<metadata>
Created by potrace 1.14, written by Peter Selinger 2001-2017
</metadata>
<g transform="translate(0.000000,512.000000) scale(0.100000,-0.100000)"
fill="#000000" stroke="none">
<path d="M2965 5061 c-11 -5 -29 -19 -40 -31 -19 -21 -20 -38 -22 -554 -1
-292 -2 -532 -2 -532 -1 -1 -29 7 -63 18 -85 26 -229 56 -308 64 -36 3 -74 8
-85 9 -11 2 -39 4 -62 4 l-43 1 0 303 c0 221 -4 309 -13 327 -19 39 -72 60
-137 55 -105 -9 -165 -16 -180 -20 -8 -2 -33 -6 -55 -9 -200 -23 -559 -149
-753 -263 -40 -24 -75 -43 -78 -43 -3 0 -10 -5 -17 -10 -7 -6 -37 -27 -67 -47
-165 -110 -345 -268 -459 -403 -25 -30 -51 -59 -58 -65 -6 -5 -40 -50 -75
-100 -242 -339 -372 -672 -434 -1105 -10 -70 -13 -428 -4 -495 5 -33 11 -82
15 -110 3 -27 13 -84 21 -125 112 -554 411 -1040 854 -1387 63 -49 244 -173
254 -173 2 0 36 -18 75 -40 182 -103 457 -200 679 -240 158 -28 243 -35 437
-35 224 0 328 10 480 45 28 6 61 14 75 16 53 10 230 68 330 109 168 69 370
181 442 245 43 39 55 81 34 121 -7 13 -97 134 -201 268 l-188 243 49 41 c88
73 210 200 271 282 66 88 146 217 158 254 7 23 8 23 25 5 10 -11 77 -95 149
-189 73 -93 137 -177 144 -185 7 -9 25 -33 41 -55 17 -22 32 -42 36 -45 3 -3
31 -39 63 -81 75 -99 97 -119 137 -124 47 -6 74 12 172 110 278 277 451 599
528 978 14 68 16 88 25 190 l6 78 -35 35 -34 34 -541 0 -541 0 -1 33 c-1 17
-1 35 0 39 3 23 -34 244 -55 324 -13 52 -24 96 -24 97 0 2 228 4 508 4 279 1
518 2 532 2 14 1 39 13 55 27 29 24 30 29 30 102 0 221 -62 491 -168 737 -256
595 -790 1051 -1417 1210 -102 26 -130 31 -200 41 -25 3 -54 8 -64 10 -50 9
-183 13 -201 5z"/>
</g>
</svg>
